<svg xmlns="http://www.w3.org/2000/svg" width="30" height="30" fill="none" viewBox="0 0 30 30"><circle cx="15.003" cy="15" r="15" fill="#fff"/><path fill="#21214D" d="M12.006 11.62c0 1.515-1.07 2.744-2.39 2.744s-2.39-1.23-2.39-2.745c0-1.515 1.07-2.744 2.39-2.744s2.39 1.229 2.39 2.744ZM22.782 11.62c0 1.515-1.07 2.744-2.39 2.744s-2.39-1.23-2.39-2.745c0-1.515 1.07-2.744 2.39-2.744s2.39 1.229 2.39 2.744Z"/><path fill="#fff" d="M10.023 10.805a.868.868 0 1 1-1.735 0 .868.868 0 0 1 1.735 0ZM20.8 10.805a.868.868 0 1 1-1.736 0 .868.868 0 0 1 1.735 0Z"/><path fill="#21214D" stroke="#21214D" stroke-width=".196" d="M24.114 20.252c.577-.779.592-1.503.406-2.05v-.001a1.732 1.732 0 0 0-.091-.226v-.001c-.127-.27-.3-.486-.464-.626a.922.922 0 0 0-.224-.147.235.235 0 0 0-.122-.027c-1.504.693-3.272.99-4.854 1.114-1.28.1-2.445.089-3.25.08a51.457 51.457 0 0 0-1.022 0c-.806.009-1.97.02-3.25-.08-1.582-.124-3.35-.42-4.854-1.114-.021-.003-.061 0-.123.027a.922.922 0 0 0-.223.147c-.164.14-.337.355-.464.626a1.785 1.785 0 0 0-.092.227v.001c-.185.547-.17 1.271.406 2.05.077.103.156.211.238.325.635.872 1.464 2.01 2.714 2.976 1.408 1.088 3.353 1.957 6.159 1.957 2.805 0 4.75-.869 6.159-1.957 1.25-.965 2.078-2.104 2.714-2.977.082-.113.16-.221.237-.324Z"/><path fill="#fff" d="M7.93 20.218c1.882 1.205 4.36 1.936 7.073 1.936 1.875 0 3.636-.348 5.166-.961a10.99 10.99 0 0 0 2.546-1.42c.24-.181.467-.371.681-.569a8.282 8.282 0 0 0 .717-.746l.023-.028.012-.014.11-.136.01-.014.007-.007c.084-.108.165-.216.242-.326a1.928 1.928 0 0 0-.558-.715.936.936 0 0 0-.169-.103.618.618 0 0 0-.101-.034.223.223 0 0 0-.104 0c-2.691 1.245-6.263 1.208-8.067 1.19-.193-.003-.366-.005-.515-.005-.149 0-.322.002-.515.004-.817.009-1.995.021-3.29-.083-1.566-.127-3.303-.424-4.777-1.106a.182.182 0 0 0-.054-.005h-.012a.441.441 0 0 0-.139.038l.001.002v-.001c-.228.103-.531.4-.728.818a8.88 8.88 0 0 0 .248.334c.014.015.027.032.04.048l.093.115.068.078.069.082a8.448 8.448 0 0 0 1.285 1.183 9.586 9.586 0 0 0 .637.445Z"/></svg>