<svg xmlns="http://www.w3.org/2000/svg" width="31" height="31" fill="none" viewBox="0 0 31 31"><circle cx="15.6" cy="15.065" r="15" fill="#fff"/><path fill="#21214D" d="M12.602 11.488c0 1.516-1.07 2.745-2.39 2.745s-2.39-1.229-2.39-2.745c0-1.515 1.07-2.744 2.39-2.744s2.39 1.229 2.39 2.744ZM23.378 11.488c0 1.516-1.07 2.745-2.39 2.745s-2.39-1.229-2.39-2.745c0-1.515 1.07-2.744 2.39-2.744s2.39 1.229 2.39 2.744Z"/><path fill="#fff" d="M10.62 10.674a.868.868 0 1 1-1.736 0 .868.868 0 0 1 1.736 0ZM21.396 10.674a.868.868 0 1 1-1.736 0 .868.868 0 0 1 1.736 0Z"/><path fill="#21214D" d="m22.097 20.61-.015-.014c-.45-.39-1.193-.28-1.763.117a7.397 7.397 0 0 1-2.454 1.126 7.822 7.822 0 0 1-2.266.33 7.753 7.753 0 0 1-2.273-.333 7.408 7.408 0 0 1-2.444-1.123c-.57-.397-1.313-.506-1.763-.117l-.018.014c-.446.38-.326 1.271.383 1.88a9.994 9.994 0 0 0 5.457 2.34c.217.012.437.021.66.021.222 0 .442-.009.66-.021a9.975 9.975 0 0 0 5.453-2.34c.712-.608.833-1.5.383-1.88Z"/></svg>