<svg width="15" height="15" viewBox="0 0 15 15" fill="none" xmlns="http://www.w3.org/2000/svg">
<path d="M9.72656 7.47656L14.7891 12.5391C15.0703 12.8203 15.0703 13.3359 14.7891 13.6172L13.6172 14.7891C13.3359 15.0703 12.8203 15.0703 12.5391 14.7891L7.52344 9.72656L2.46094 14.7891C2.17969 15.0703 1.66406 15.0703 1.38281 14.7891L0.210938 13.6172C-0.0703125 13.3359 -0.0703125 12.8203 0.210938 12.5391L5.27344 7.47656L0.210938 2.46094C-0.0703125 2.17969 -0.0703125 1.66406 0.210938 1.38281L1.38281 0.210938C1.66406 -0.0703125 2.17969 -0.0703125 2.46094 0.210938L7.52344 5.27344L12.5391 0.210938C12.8203 -0.0703125 13.3359 -0.0703125 13.6172 0.210938L14.7891 1.38281C15.0703 1.66406 15.0703 2.17969 14.7891 2.46094L9.72656 7.47656Z" fill="#9393B7"/>
</svg>
