<svg xmlns="http://www.w3.org/2000/svg" width="16" height="16" fill="none" viewBox="0 0 16 16"><path fill="#21214D" d="M10 .906c-.031.219-.125.531-.25.688L7.156 4.5H9c.25 0 .5.25.5.5v.5c0 .281-.25.5-.5.5H5.5a.494.494 0 0 1-.5-.5v-.406c0-.188.094-.5.219-.657L7.812 1.5H6a.494.494 0 0 1-.5-.5V.5c0-.25.219-.5.5-.5h3.5c.25 0 .5.25.5.5v.406ZM7.25 8a.76.76 0 0 1 .75.75v.813c-.031.218-.156.53-.313.687L3.876 14H7.5c.25 0 .5.25.5.5v1c0 .281-.25.5-.5.5H1.75a.722.722 0 0 1-.75-.75v-.781c0-.219.125-.531.281-.688L5.094 10H2a.494.494 0 0 1-.5-.5v-1c0-.25.219-.5.5-.5h5.25Zm7.25-1c.25 0 .5.25.5.5v.406c-.031.219-.125.532-.25.688L12.156 11.5H14c.25 0 .5.25.5.5v.5c0 .281-.25.5-.5.5h-3.5a.494.494 0 0 1-.5-.5v-.406c0-.188.094-.5.219-.656L12.813 8.5H11a.494.494 0 0 1-.5-.5v-.5c0-.25.219-.5.5-.5h3.5Z"/></svg>