<svg xmlns="http://www.w3.org/2000/svg" width="154" height="155" fill="none" viewBox="0 0 154 155"><circle cx="76.665" cy="77.665" r="76.665" fill="#FF9B99"/><path fill="#21214D" d="M54.515 72.594c1.226-.552 2.43-1.167 3.529-1.943 3.59-2.537 5.863-6.843 5.933-11.237.01-.607-.024-1.231-.273-1.784-.61-1.352-2.39-1.86-3.815-1.447-1.425.413-2.54 1.519-3.462 2.681-.922 1.163-1.732 2.435-2.862 3.398-.982.837-2.165 1.405-3.361 1.893-3.543 1.444-7.783 2.212-11.055.228-.668-.404-1.269-.91-1.873-1.405-1.527-1.25-3.157-2.472-5.072-2.946-1.913-.473-4.187-.017-5.344 1.579-.96 1.325-.959 3.176-.328 4.687.63 1.509 1.804 2.729 3.063 3.774 4.132 3.436 9.53 5.374 14.898 5.134 3.47-.155 6.855-1.187 10.022-2.612ZM98.901 72.594c-1.226-.552-2.43-1.167-3.53-1.943-3.588-2.537-5.862-6.843-5.932-11.237-.01-.607.024-1.231.273-1.784.61-1.352 2.39-1.86 3.815-1.447 1.425.413 2.54 1.519 3.462 2.681.922 1.163 1.734 2.435 2.862 3.398.982.837 2.165 1.405 3.361 1.893 3.543 1.444 7.783 2.212 11.055.228.668-.404 1.269-.91 1.873-1.405 1.527-1.25 3.157-2.472 5.072-2.946 1.913-.473 4.187-.017 5.344 1.579.96 1.325.959 3.176.328 4.687-.631 1.509-1.804 2.729-3.063 3.774-4.132 3.436-9.53 5.374-14.898 5.134-3.47-.155-6.855-1.187-10.022-2.612Z"/><path fill="#21214D" d="M44.233 35.568c5.08-3.628 9.139-5.881 12.102-4.014 2.961 1.866 3.017 8.264-1.343 10.586-4.361 2.323-16.79 9.65-34.137 5.08-2.66-.514.869-6.797 8.133-6.669 7.265.13 13.435-3.723 15.245-4.983ZM109.183 35.568c-5.08-3.628-9.139-5.881-12.1-4.014-2.963 1.866-3.019 8.264 1.341 10.586 4.361 2.323 16.789 9.65 34.137 5.08 2.66-.514-.869-6.797-8.133-6.669-7.265.13-13.435-3.723-15.245-4.983Z" opacity=".3"/><path fill="#21214D" d="M111.34 120.458c-2.444 4.181-11.51 4.597-14.225.814-5.811-7.185-15.566-5.846-20.416-5.846-4.832 0-14.588-1.339-20.398 5.846-2.714 3.783-11.781 3.367-14.225-.814-1.647-2.86-5.176-7.33.743-16.235l.036-.055a53.327 53.327 0 0 1 2.986-3.365c8.488-8.85 19.203-14.136 30.858-14.136 11.656 0 22.388 5.285 30.877 14.136a53.431 53.431 0 0 1 2.985 3.365l.036.055c5.919 8.905 2.39 13.375.743 16.235Z"/><path fill="#fff" d="M47.65 107.698c2.1 3.313 8.598 1.502 11.313 0 6.93-4.235 14.622-3.746 17.898-3.746s10.662-.489 17.592 3.746c2.715 1.502 9.214 3.313 11.312 0 .562-.89 1.132-1.986 1.492-3.247.278-.968.84-3.113.071-3.904a53.155 53.155 0 0 0-2.957-2.821 49.784 49.784 0 0 0-3.116-2.536c-7.25-5.424-15.632-8.523-24.556-8.523-8.923 0-17.295 3.097-24.539 8.523a49.57 49.57 0 0 0-3.115 2.534 53.944 53.944 0 0 0-2.958 2.823c-.768.791-.206 2.936.07 3.904.362 1.261.932 2.357 1.494 3.247Z"/><path fill="#fff" d="M47.65 107.698c2.1 3.313 8.598 1.502 11.313 0 6.93-4.235 14.622-3.746 17.898-3.746s10.662-.489 17.592 3.746c2.715 1.502 9.214 3.313 11.312 0 .562-.89 1.132-1.986 1.492-3.247.278-.968.84-3.113.071-3.904a53.155 53.155 0 0 0-2.957-2.821 49.784 49.784 0 0 0-3.116-2.536c-7.25-5.424-15.632-8.523-24.556-8.523-8.923 0-17.295 3.097-24.539 8.523a49.57 49.57 0 0 0-3.115 2.534 53.944 53.944 0 0 0-2.958 2.823c-.768.791-.206 2.936.07 3.904.362 1.261.932 2.357 1.494 3.247Z"/><path fill="#fff" d="M47.65 107.696c2.01 3.179 8.08 1.64 10.961.183-.041-.354-.09-.718-.131-1.097-2.94 1.458-9.133 3.188-11.25.215.14.247.28.477.42.699Z"/><path fill="#fff" d="M47.23 106.997c2.117 2.973 8.31 1.243 11.25-.215a42.54 42.54 0 0 1-.132-1.17c-3.039 1.466-9.19 3.13-11.52.602.131.272.262.528.402.783Z"/><path fill="#fff" d="M46.827 106.214c2.33 2.528 8.482.864 11.521-.602a44.773 44.773 0 0 1-.106-1.243c-3.146 1.474-9.232 3.073-11.777.998.106.296.23.575.362.847Z"/><path fill="#fff" d="M46.465 105.367c2.544 2.075 8.63.476 11.776-.998a33.887 33.887 0 0 1-.074-1.308c-3.195 1.474-9.364 3.26-12.016 1.39.091.313.198.619.314.916ZM58.611 107.879c.124-.058.24-.118.347-.183-.025-.362-.049-.74-.082-1.128-.115.067-.273.148-.396.214.041.379.09.743.131 1.097Z"/><path fill="#fff" d="M58.48 106.782c.124-.065.28-.148.395-.214-.024-.387-.05-.782-.065-1.194-.157.075-.306.156-.462.238.041.404.083.792.132 1.17Z"/><path fill="#fff" d="M58.348 105.612c.156-.082.305-.163.462-.238a29.624 29.624 0 0 1-.05-1.275c-.181.09-.337.171-.518.27.033.429.065.84.106 1.243Z"/><path fill="#fff" d="M58.242 104.369c.18-.099.337-.18.518-.27-.016-.428-.015-.882-.015-1.335-.198.098-.389.198-.578.297.016.444.041.88.075 1.308ZM58.958 107.696c6.926-4.225 14.6-3.746 17.886-3.746v-1.006c-3.409 0-11.092-.46-17.968 3.624.033.388.057.766.082 1.128Z"/><path fill="#fff" d="M58.876 106.568c6.876-4.084 14.56-3.624 17.968-3.624 0-.345-.014-.699-.014-1.07-3.672 0-11.249-.288-18.026 3.5.016.412.04.807.065 1.194h.007Z"/><path fill="#fff" d="M58.808 105.375c6.778-3.789 14.354-3.5 18.027-3.5v-1.154c-3.945 0-11.406-.097-18.076 3.378.013.436.024.864.05 1.276Z"/><path fill="#fff" d="M58.76 104.099c6.67-3.475 14.131-3.378 18.076-3.378 0-.396 0-.798-.013-1.21-4.06 0-11.455-.083-18.085 3.253 0 .453 0 .906.017 1.334l.005.001ZM76.844 103.95h.016v-1.006h-.016v1.006Z"/><path fill="#fff" d="M76.844 102.944h.016v-1.07l-.025.001c0 .37.014.724.014 1.069h-.005ZM76.835 101.875l.025-.001v-1.153h-.025v1.154Z"/><path fill="#fff" d="M76.836 100.721h.025v-1.21h-.033c.013.412.013.814.013 1.21h-.005ZM76.86 103.95c3.278 0 10.657-.487 17.59 3.746.075-.337.149-.682.223-1.053-6.901-4.134-14.395-3.699-17.813-3.699v1.006Z"/><path fill="#fff" d="M76.86 102.944c3.418 0 10.912-.435 17.813 3.699.075-.362.148-.734.214-1.121-6.843-3.936-14.304-3.648-18.027-3.648v1.07Z"/><path fill="#fff" d="M76.86 101.874c3.723 0 11.184-.288 18.027 3.648.075-.387.14-.79.198-1.193-6.786-3.731-14.198-3.6-18.225-3.608v1.153Z"/><path fill="#fff" d="M76.86 100.721c4.027.013 11.44-.123 18.225 3.608.057-.412.115-.832.156-1.269-6.753-3.631-14.213-3.54-18.38-3.55v1.211ZM94.45 107.696c2.718 1.507 9.216 3.311 11.316 0 .14-.222.281-.452.412-.699-2.182 3.08-8.713 1.145-11.505-.354-.074.371-.148.716-.222 1.053Z"/><path fill="#fff" d="M94.673 106.643c2.792 1.499 9.323 3.434 11.505.354.14-.255.28-.511.403-.783-2.372 2.594-8.738.799-11.694-.692-.066.387-.14.759-.214 1.121Z"/><path fill="#fff" d="M94.888 105.523c2.956 1.491 9.321 3.285 11.693.691.132-.272.256-.551.371-.847-2.561 2.092-8.746.436-11.867-1.038-.057.403-.124.807-.197 1.194Z"/><path fill="#fff" d="M95.085 104.329c3.121 1.474 9.306 3.13 11.867 1.038.107-.297.215-.603.305-.916-2.651 1.87-8.82.092-12.016-1.391-.041.437-.099.857-.156 1.269ZM46.152 104.451c2.586 1.82 8.524.174 11.777-1.284-.124-1.441-.412-4.068.098-5.345-3.5 1.45-8.918 3.345-11.94 2.727-.766.79-.206 2.931.065 3.902Z"/><path fill="#fff" d="M57.928 103.167c.083-.033.165-.065.239-.106-.09-1.458-.354-4.101.181-5.386-.107.05-.215.097-.322.147-.51 1.277-.222 3.904-.098 5.345Z"/><path fill="#fff" d="M58.167 103.061c6.761-3.632 14.453-3.55 18.645-3.55-.014-1.367-.013-3.912-.016-5.098-4.884 0-11.942.255-18.447 3.26-.536 1.285-.273 3.93-.182 5.388ZM76.812 99.51h.016c.013-1.366.025-3.91.025-5.097h-.057c.013 1.186.013 3.73.016 5.098Z"/><path fill="#fff" d="M76.828 99.51h.033c.014-1.366.013-3.91 0-5.097h-.014c0 1.186-.016 3.73-.026 5.098h.007Z"/><path fill="#fff" d="M76.861 99.51c4.167.014 11.627-.082 18.38 3.55.198-1.408.569-3.993.14-5.229-6.563-3.137-13.588-3.41-18.52-3.418.013 1.186.014 3.73 0 5.098Z"/><path fill="#fff" d="M95.241 103.06c3.195 1.483 9.365 3.261 12.016 1.391.272-.972.84-3.112.066-3.902-3.015.617-8.442-1.277-11.942-2.718.428 1.236.058 3.821-.14 5.229ZM46.085 100.549c3.022.618 8.441-1.278 11.941-2.727a110.915 110.915 0 0 1 1.622-4.183c-3.508 1.441-6.926 3.13-10.607 4.084a52.926 52.926 0 0 0-2.956 2.826Z"/><path fill="#fff" d="M58.027 97.822a30.603 30.603 0 0 1 3.583-1.424c.305-1.334.634-2.626.964-3.862-.989.33-1.96.708-2.924 1.103-.56 1.35-1.096 2.75-1.623 4.183Z"/><path fill="#fff" d="M61.61 96.398c5.518-1.803 11.11-1.985 15.186-1.985 0-1.383-.014-2.726-.014-4.02-4.8-.012-9.652.586-14.214 2.143-.33 1.235-.659 2.528-.963 3.862h.005Z"/><path fill="#fff" d="M76.794 94.413h.058c-.014-1.383-.026-2.726-.034-4.02h-.033c0 1.294.013 2.637.013 4.02h-.004ZM76.853 94.413h.013c0-1.383-.014-2.726-.016-4.02h-.026c.014 1.294.026 2.637.034 4.02h-.005Z"/><path fill="#fff" d="M76.86 94.413c4.01.014 9.414.18 14.825 1.943-.305-1.334-.61-2.618-.94-3.853-4.463-1.515-9.206-2.093-13.9-2.11.013 1.294.015 2.637.015 4.02Z"/><path fill="#fff" d="M91.685 96.356c1.235.404 2.47.89 3.696 1.475a100.966 100.966 0 0 0-1.613-4.183 49.46 49.46 0 0 0-3.022-1.145c.33 1.235.634 2.519.939 3.853Z"/><path fill="#fff" d="M95.381 97.831c3.5 1.441 8.927 3.335 11.942 2.718a53.376 53.376 0 0 0-2.956-2.826c-3.682-.947-7.099-2.642-10.599-4.075a100.966 100.966 0 0 1 1.613 4.183ZM49.043 97.723c4.702-1.218 8.96-3.63 13.53-5.187.107-.32.215-.635.322-.948-4.505 1.54-8.549 4.019-13.086 5.477-.256.214-.51.436-.766.658Z"/><path fill="#fff" d="M49.809 97.065c4.537-1.458 8.58-3.937 13.086-5.477.106-.313.213-.617.32-.922-4.356 1.499-8.465 3.78-12.632 5.757-.264.206-.52.42-.774.642Z"/><path fill="#fff" d="M50.583 96.423c4.167-1.977 8.276-4.258 12.633-5.757.106-.313.213-.61.328-.906-4.216 1.466-8.375 3.541-12.18 6.036-.263.206-.526.412-.781.627Z"/><path fill="#fff" d="M51.365 95.796c3.804-2.495 7.963-4.57 12.18-6.036.106-.305.213-.602.328-.89-4.142 1.45-8.07 3.59-11.718 6.317-.264.197-.527.404-.79.61ZM62.572 92.536c4.57-1.556 9.437-2.15 14.246-2.142a59.417 59.417 0 0 1-.032-.954c-4.752-.013-9.406.608-13.894 2.148-.106.313-.213.627-.32.948Z"/><path fill="#fff" d="M62.895 91.588c4.488-1.54 9.14-2.157 13.892-2.149-.014-.32-.016-.635-.033-.948-4.62 0-9.207.676-13.539 2.175-.107.305-.214.61-.32.922Z"/><path fill="#fff" d="M63.215 90.666c4.332-1.499 8.919-2.175 13.539-2.175-.014-.305-.016-.617-.025-.921-4.496 0-9.026.732-13.185 2.19-.115.296-.222.593-.328.906Z"/><path fill="#fff" d="M63.544 89.76c4.159-1.458 8.689-2.19 13.185-2.19a50.808 50.808 0 0 1-.033-.907c-4.44 0-8.73.766-12.823 2.207a21.46 21.46 0 0 0-.329.89ZM76.82 90.394v-.954h-.033c.013.312.024.633.032.954ZM76.787 89.44h.032c-.013-.322-.013-.636-.013-.949h-.057c.016.313.025.627.033.948h.005Z"/><path fill="#fff" d="M76.754 88.491h.056v-.921h-.082c.013.304.016.617.026.921ZM76.73 87.57h.08v-.907h-.114c.013.305.025.602.033.907ZM76.82 90.394c4.71.016 9.454.594 13.926 2.11-.099-.322-.207-.636-.314-.949-4.406-1.49-8.96-2.107-13.613-2.115v.954Z"/><path fill="#fff" d="M76.82 89.44c4.652.013 9.206.625 13.612 2.115-.107-.304-.213-.617-.32-.922-4.258-1.457-8.763-2.125-13.3-2.142 0 .313 0 .627.013.948h-.006Z"/><path fill="#fff" d="M76.811 88.491c4.538.017 9.043.685 13.3 2.142-.106-.304-.214-.601-.321-.906-4.11-1.425-8.556-2.141-12.979-2.157v.921Z"/><path fill="#fff" d="M76.811 87.57c4.423.016 8.87.732 12.979 2.157-.115-.296-.222-.593-.337-.882a38.701 38.701 0 0 0-12.642-2.182v.907ZM90.746 92.503c4.603 1.556 8.894 4.001 13.621 5.22-.256-.222-.511-.444-.766-.658-4.563-1.458-8.631-3.961-13.169-5.51.107.313.215.627.314.948Z"/><path fill="#fff" d="M90.432 91.555c4.538 1.549 8.606 4.052 13.169 5.51-.256-.214-.511-.436-.775-.642-4.2-1.985-8.325-4.283-12.714-5.79.107.305.213.618.32.922Z"/><path fill="#fff" d="M90.112 90.633c4.389 1.507 8.514 3.805 12.714 5.79-.255-.214-.518-.42-.781-.626-3.83-2.504-8.022-4.596-12.255-6.07.107.305.215.602.322.906Z"/><path fill="#fff" d="M89.79 89.727c4.233 1.474 8.425 3.566 12.255 6.07a55.808 55.808 0 0 0-.792-.61c-3.665-2.742-7.625-4.892-11.8-6.341.115.288.222.585.337.881Z"/></svg>