<svg xmlns="http://www.w3.org/2000/svg" width="31" height="31" fill="none" viewBox="0 0 31 31"><circle cx="15.2" cy="15.065" r="15" fill="#fff"/><path fill="#21214D" d="M10.866 14.073c.24-.108.476-.229.69-.38a2.793 2.793 0 0 0 1.161-2.2.815.815 0 0 0-.053-.348c-.12-.265-.468-.364-.746-.283-.28.08-.497.297-.678.524-.18.228-.339.477-.56.665a2.39 2.39 0 0 1-.657.37c-.694.283-1.523.433-2.163.045-.131-.079-.249-.178-.367-.275-.299-.244-.618-.483-.992-.576-.375-.093-.82-.003-1.046.309-.188.26-.187.621-.064.917.123.295.353.534.6.738.808.673 1.864 1.052 2.914 1.005.679-.03 1.341-.232 1.96-.511ZM19.55 14.073a4.112 4.112 0 0 1-.69-.38 2.793 2.793 0 0 1-1.161-2.2.815.815 0 0 1 .053-.348c.12-.265.468-.364.747-.283.279.08.497.297.677.524.18.228.34.477.56.665.192.164.424.275.658.37.693.283 1.523.433 2.163.045.13-.079.248-.178.366-.275.299-.244.618-.483.993-.576.374-.093.819-.003 1.045.309.188.26.188.621.064.917-.123.295-.353.534-.599.738-.808.673-1.865 1.052-2.915 1.005-.679-.03-1.341-.232-1.96-.511Z"/><path fill="#21214D" d="M8.854 6.829c.994-.71 1.788-1.151 2.368-.786.58.365.59 1.617-.263 2.071-.853.455-3.285 1.888-6.679.994-.52-.1.17-1.33 1.592-1.305 1.421.026 2.628-.728 2.982-.974ZM21.562 6.829c-.994-.71-1.788-1.151-2.367-.786-.58.365-.59 1.617.262 2.071.854.455 3.285 1.888 6.68.994.52-.1-.17-1.33-1.592-1.305-1.421.026-2.629-.728-2.983-.974Z" opacity=".3"/><path fill="#21214D" d="M21.984 23.437c-.478.819-2.252.9-2.783.16-1.137-1.406-3.046-1.144-3.995-1.144-.945 0-2.854-.262-3.99 1.144-.531.74-2.305.659-2.784-.16-.322-.56-1.012-1.434.146-3.176l.007-.01c.187-.23.382-.45.584-.66 1.66-1.73 3.757-2.765 6.037-2.765s4.38 1.034 6.042 2.766c.201.209.396.428.584.658l.007.011c1.158 1.742.467 2.617.145 3.176Z"/><path fill="#fff" d="M9.523 20.94c.41.65 1.682.295 2.213 0 1.356-.828 2.861-.732 3.502-.732.641 0 2.086-.096 3.442.733.531.294 1.803.648 2.213 0a2.47 2.47 0 0 0 .292-.635c.054-.19.165-.61.014-.764a10.338 10.338 0 0 0-1.188-1.048c-1.419-1.062-3.059-1.668-4.805-1.668-1.745 0-3.383.606-4.8 1.668a9.701 9.701 0 0 0-1.189 1.048c-.15.154-.04.574.014.764.07.246.182.46.292.635Z"/><path fill="#fff" d="M9.523 20.94c.41.65 1.682.295 2.213 0 1.356-.828 2.861-.732 3.502-.732.641 0 2.086-.096 3.442.733.531.294 1.803.648 2.213 0a2.47 2.47 0 0 0 .292-.635c.054-.19.165-.61.014-.764a10.338 10.338 0 0 0-1.188-1.048c-1.419-1.062-3.059-1.668-4.805-1.668-1.745 0-3.383.606-4.8 1.668a9.701 9.701 0 0 0-1.189 1.048c-.15.154-.04.574.014.764.07.246.182.46.292.635Z"/><path fill="#fff" d="M9.523 20.94c.393.622 1.58.321 2.145.036l-.026-.214c-.575.285-1.787.623-2.201.042.027.048.055.093.082.137Z"/><path fill="#fff" d="M9.44 20.804c.415.581 1.627.243 2.202-.042a8.268 8.268 0 0 1-.026-.23c-.595.288-1.798.613-2.254.119.026.053.051.103.079.153Z"/><path fill="#fff" d="M9.362 20.65c.456.495 1.66.17 2.254-.117a8.973 8.973 0 0 1-.02-.243c-.616.288-1.807.6-2.305.195.02.058.045.112.07.166Z"/><path fill="#fff" d="M9.291 20.485c.498.406 1.689.093 2.304-.195a6.492 6.492 0 0 1-.014-.256c-.626.288-1.833.637-2.351.272.017.06.038.12.061.179ZM11.668 20.976a.665.665 0 0 0 .067-.035l-.016-.221-.077.042.026.214Z"/><path fill="#fff" d="m11.642 20.762.077-.042c-.005-.076-.01-.153-.013-.234-.03.015-.06.03-.09.047.008.079.016.155.026.229Z"/><path fill="#fff" d="m11.616 20.533.09-.047a5.792 5.792 0 0 1-.01-.25 3.078 3.078 0 0 0-.1.054c.006.083.012.164.02.243Z"/><path fill="#fff" d="M11.595 20.29c.036-.02.066-.036.102-.053-.003-.084-.003-.173-.003-.261-.04.019-.076.038-.113.058.003.087.008.172.014.256ZM11.735 20.94c1.355-.826 2.857-.733 3.5-.733v-.196c-.667 0-2.17-.09-3.516.709.007.076.011.15.016.22Z"/><path fill="#fff" d="M11.72 20.72c1.345-.8 2.848-.71 3.515-.71 0-.067-.003-.136-.003-.209-.718 0-2.2-.056-3.527.685.003.08.008.158.013.234h.001Z"/><path fill="#fff" d="M11.706 20.486c1.326-.74 2.808-.684 3.527-.684v-.226c-.772 0-2.232-.02-3.537.66.003.086.005.17.01.25Z"/><path fill="#fff" d="M11.697 20.237c1.305-.68 2.764-.661 3.536-.661 0-.078 0-.156-.002-.237-.795 0-2.242-.016-3.539.637 0 .088 0 .177.003.26h.002ZM15.235 20.207h.003v-.196h-.003v.197Z"/><path fill="#fff" d="M15.235 20.01h.003v-.209h-.005c0 .073.003.142.003.21h-.001Z"/><path fill="#fff" d="M15.233 19.802h.005v-.226h-.005v.226ZM15.233 19.576h.005v-.237h-.006c.002.08.002.16.002.237ZM15.238 20.207c.641 0 2.085-.095 3.442.733.014-.066.029-.133.043-.206-1.35-.808-2.816-.723-3.485-.723v.197Z"/><path fill="#fff" d="M15.238 20.01c.669 0 2.135-.084 3.485.724.015-.07.029-.143.042-.219-1.339-.77-2.799-.714-3.527-.714v.21Z"/><path fill="#fff" d="M15.238 19.801c.728 0 2.188-.056 3.527.714.014-.076.027-.154.039-.233-1.328-.73-2.778-.705-3.566-.706v.225Z"/><path fill="#fff" d="M15.238 19.576c.788.002 2.238-.024 3.566.706a5.69 5.69 0 0 0 .03-.248c-1.321-.711-2.78-.693-3.596-.695v.237ZM18.68 20.94c.531.295 1.803.648 2.213 0 .028-.043.055-.088.081-.136-.427.602-1.705.224-2.251-.07-.014.073-.029.14-.043.206Z"/><path fill="#fff" d="M18.723 20.735c.546.293 1.824.671 2.251.069.027-.05.055-.1.079-.153-.464.507-1.71.156-2.288-.136a6.463 6.463 0 0 1-.042.22Z"/><path fill="#fff" d="M18.765 20.515c.578.292 1.824.643 2.288.136.026-.054.05-.108.072-.166-.5.41-1.71.085-2.321-.203a4.951 4.951 0 0 1-.039.233Z"/><path fill="#fff" d="M18.804 20.282c.61.288 1.82.612 2.322.203.02-.058.041-.118.06-.18-.52.366-1.727.018-2.352-.271a5.69 5.69 0 0 1-.03.248ZM9.23 20.306c.506.356 1.668.034 2.304-.252-.024-.281-.08-.795.02-1.045-.686.283-1.746.654-2.337.533-.15.155-.04.573.013.764Z"/><path fill="#fff" d="M11.534 20.054c.016-.006.032-.012.047-.02-.018-.286-.07-.803.035-1.054l-.063.029c-.1.25-.043.763-.02 1.045Z"/><path fill="#fff" d="M11.58 20.034c1.323-.711 2.828-.695 3.648-.695-.002-.267-.002-.765-.003-.997-.955 0-2.336.05-3.609.638-.105.251-.053.768-.035 1.054Z"/><path fill="#fff" d="M15.228 19.34h.004c.002-.268.005-.766.005-.998h-.012c.003.232.003.73.003.997Z"/><path fill="#fff" d="M15.232 19.34h.006a62.48 62.48 0 0 0 0-.998h-.003c0 .232-.003.73-.005.997h.002Z"/><path fill="#fff" d="M15.238 19.34c.815.002 2.275-.017 3.596.694.039-.276.111-.782.028-1.024-1.285-.614-2.659-.667-3.624-.668.003.232.003.73 0 .997Z"/><path fill="#fff" d="M18.834 20.034c.625.29 1.832.637 2.351.272.053-.19.165-.61.013-.764-.59.12-1.652-.25-2.336-.532.083.242.01.748-.028 1.023ZM9.217 19.542c.591.121 1.651-.25 2.336-.533.103-.28.208-.555.317-.819-.686.282-1.355.612-2.075.8-.198.175-.391.359-.578.552Z"/><path fill="#fff" d="M11.553 19.009c.23-.11.466-.202.701-.279.06-.261.124-.514.189-.756a9.053 9.053 0 0 0-.572.216c-.11.264-.215.538-.318.819Z"/><path fill="#fff" d="M12.254 18.73c1.08-.353 2.174-.388 2.971-.388l-.002-.787c-.94-.002-1.889.115-2.781.42-.065.241-.13.494-.189.755h.001Z"/><path fill="#fff" d="M15.225 18.342h.011l-.006-.787h-.007c0 .253.003.516.003.787h-.001ZM15.237 18.342h.002c0-.271-.003-.534-.003-.787h-.005l.007.787h-.001Z"/><path fill="#fff" d="M15.238 18.342c.785.002 1.842.035 2.9.38-.06-.261-.119-.512-.183-.754-.874-.296-1.802-.41-2.72-.413.003.253.003.516.003.787Z"/><path fill="#fff" d="M18.138 18.722c.242.079.483.174.724.288a19.664 19.664 0 0 0-.316-.818 9.594 9.594 0 0 0-.591-.224c.064.242.124.493.183.754Z"/><path fill="#fff" d="M18.862 19.01c.684.282 1.746.653 2.336.532-.187-.193-.38-.377-.578-.553-.72-.185-1.39-.517-2.074-.797.108.262.214.536.316.818ZM9.795 18.99c.92-.24 1.754-.711 2.648-1.015.02-.063.042-.125.063-.186-.882.301-1.673.786-2.56 1.071-.05.042-.1.086-.15.13Z"/><path fill="#fff" d="M9.945 18.86c.888-.285 1.68-.77 2.56-1.071l.063-.18c-.852.293-1.656.74-2.471 1.126-.052.04-.102.082-.152.125Z"/><path fill="#fff" d="M10.097 18.735c.815-.387 1.619-.833 2.471-1.126.021-.062.042-.12.065-.178-.825.287-1.639.693-2.383 1.181a5.69 5.69 0 0 0-.153.123Z"/><path fill="#fff" d="M10.25 18.612a10.946 10.946 0 0 1 2.383-1.18c.02-.06.042-.118.064-.175a8.562 8.562 0 0 0-2.293 1.236l-.154.12ZM12.442 17.974c.895-.304 1.847-.42 2.788-.419a12.36 12.36 0 0 1-.007-.186c-.93-.003-1.84.119-2.718.42l-.063.185Z"/><path fill="#fff" d="M12.505 17.789c.879-.301 1.789-.422 2.719-.42l-.007-.186c-.904 0-1.801.132-2.649.426l-.063.18Z"/><path fill="#fff" d="M12.568 17.609a8.092 8.092 0 0 1 2.65-.426c-.004-.06-.004-.12-.006-.18-.88 0-1.766.143-2.58.428a4.51 4.51 0 0 0-.064.178Z"/><path fill="#fff" d="M12.633 17.431a7.857 7.857 0 0 1 2.58-.428 10.5 10.5 0 0 1-.007-.178c-.869 0-1.708.15-2.509.432a4.342 4.342 0 0 0-.064.174ZM15.23 17.555v-.186h-.006l.006.186ZM15.224 17.369h.006c-.003-.063-.003-.125-.003-.186h-.01l.006.186Z"/><path fill="#fff" d="M15.217 17.183h.011v-.18h-.016c.003.06.003.12.005.18ZM15.212 17.003h.016v-.178h-.022c.002.06.005.118.006.178ZM15.23 17.555c.922.003 1.85.117 2.725.413-.02-.063-.04-.124-.062-.185-.862-.292-1.753-.413-2.663-.414v.186Z"/><path fill="#fff" d="M15.23 17.369c.91.002 1.801.122 2.663.414l-.062-.18a8.119 8.119 0 0 0-2.603-.42c0 .061 0 .123.003.186h-.001Z"/><path fill="#fff" d="M15.228 17.183c.888.003 1.77.134 2.603.42l-.063-.178a7.89 7.89 0 0 0-2.54-.422v.18Z"/><path fill="#fff" d="M15.228 17.003a7.89 7.89 0 0 1 2.54.422l-.066-.173a7.571 7.571 0 0 0-2.474-.427v.178ZM17.955 17.968c.9.305 1.74.783 2.665 1.021l-.15-.129c-.893-.285-1.689-.774-2.577-1.077.021.06.042.122.062.185Z"/><path fill="#fff" d="M17.893 17.783c.888.302 1.684.792 2.577 1.077-.05-.041-.1-.085-.152-.125-.822-.388-1.629-.838-2.487-1.133l.062.18Z"/><path fill="#fff" d="M17.83 17.602c.86.295 1.667.745 2.488 1.133a5.355 5.355 0 0 0-.153-.123c-.749-.49-1.57-.899-2.397-1.187.02.06.042.117.063.177Z"/><path fill="#fff" d="M17.768 17.425c.828.288 1.648.698 2.397 1.187a8.526 8.526 0 0 0-2.464-1.36l.067.173Z"/></svg>