<svg xmlns="http://www.w3.org/2000/svg" width="154" height="154" fill="none" viewBox="0 0 154 154"><circle cx="76.665" cy="76.665" r="76.665" fill="#FFC97C"/><path fill="#21214D" d="M61.343 59.386c0 7.747-5.47 14.027-12.216 14.027-6.747 0-12.217-6.28-12.217-14.027 0-7.747 5.47-14.027 12.217-14.027 6.747 0 12.216 6.28 12.216 14.027ZM116.423 59.386c0 7.747-5.469 14.027-12.216 14.027-6.748 0-12.217-6.28-12.217-14.027 0-7.747 5.47-14.027 12.217-14.027 6.747 0 12.216 6.28 12.216 14.027Z"/><path fill="#fff" d="M51.208 55.223a4.434 4.434 0 1 1-8.868.001 4.434 4.434 0 0 1 8.868 0ZM106.288 55.223a4.435 4.435 0 1 1-8.87 0 4.435 4.435 0 0 1 8.87 0Z"/><path fill="#21214D" stroke="#21214D" d="M123.229 103.506c2.947-3.978 3.025-7.682 2.078-10.474l-.003-.009a8.96 8.96 0 0 0-.465-1.154l-.002-.004c-.647-1.384-1.535-2.486-2.37-3.2-.419-.358-.812-.608-1.143-.751-.314-.136-.519-.154-.627-.135-7.684 3.54-16.723 5.057-24.806 5.693-6.545.514-12.496.452-16.614.41-.98-.01-1.855-.02-2.61-.02-.756 0-1.631.01-2.61.02-4.12.042-10.07.104-16.615-.41-8.084-.636-17.123-2.152-24.807-5.693-.107-.018-.311-.001-.625.135-.331.143-.725.393-1.143.75-.835.715-1.723 1.817-2.37 3.2l-.002.005a9.11 9.11 0 0 0-.467 1.155l-.002.008c-.947 2.792-.869 6.496 2.077 10.474.39.528.794 1.083 1.215 1.66 3.247 4.461 7.484 10.281 13.87 15.215 7.199 5.56 17.14 10.001 31.479 10.001 14.338 0 24.28-4.441 31.478-10.001 6.388-4.935 10.624-10.755 13.871-15.217.42-.577.823-1.131 1.213-1.658Z"/><path fill="#fff" d="M40.51 103.333c9.623 6.161 22.285 9.899 36.154 9.899 9.58 0 18.583-1.783 26.404-4.916 4.837-1.937 9.222-4.39 13.012-7.256a46.607 46.607 0 0 0 3.481-2.906 42.285 42.285 0 0 0 3.661-3.817l.121-.141.058-.072c.19-.23.378-.461.563-.694l.056-.07.031-.04c.431-.548.844-1.104 1.238-1.667-.767-1.641-1.861-2.912-2.852-3.652a4.794 4.794 0 0 0-.863-.528l-.001.001a2.95 2.95 0 0 0-.291-.11 2.099 2.099 0 0 0-.417-.091l-.002.003.002-.005c-.127 0-.233 0-.339.032v.002c-13.755 6.36-32.013 6.17-41.233 6.075-.985-.01-1.866-.02-2.628-.02-.764 0-1.647.01-2.633.02-4.175.043-10.198.106-16.816-.428-8.006-.647-16.884-2.167-24.416-5.648a.93.93 0 0 0-.278-.03l-.058-.001-.001-.002a2.245 2.245 0 0 0-.709.201l.003.006-.003-.005c-1.165.53-2.71 2.043-3.716 4.182.2.286.412.571.623.857l.001-.002v.003c.211.286.423.561.646.847l.198.248c.157.196.316.395.48.588.114.136.229.268.343.4l.001.001c.118.137.236.274.354.414a43.126 43.126 0 0 0 3.082 3.145 47.232 47.232 0 0 0 3.295 2.758l.191.146a53.478 53.478 0 0 0 3.257 2.273Z"/></svg>