<svg width="16" height="16" viewBox="0 0 16 16" fill="none" xmlns="http://www.w3.org/2000/svg">
<path d="M7.75 0C12 0 15.5 3.5 15.5 7.75C15.5 12.0312 12 15.5 7.75 15.5C3.46875 15.5 0 12.0312 0 7.75C0 3.5 3.46875 0 7.75 0ZM7.75 3.4375C7 3.4375 6.4375 4.03125 6.4375 4.75C6.4375 5.5 7 6.0625 7.75 6.0625C8.46875 6.0625 9.0625 5.5 9.0625 4.75C9.0625 4.03125 8.46875 3.4375 7.75 3.4375ZM9.5 11.375V10.625C9.5 10.4375 9.3125 10.25 9.125 10.25H8.75V7.125C8.75 6.9375 8.5625 6.75 8.375 6.75H6.375C6.15625 6.75 6 6.9375 6 7.125V7.875C6 8.09375 6.15625 8.25 6.375 8.25H6.75V10.25H6.375C6.15625 10.25 6 10.4375 6 10.625V11.375C6 11.5938 6.15625 11.75 6.375 11.75H9.125C9.3125 11.75 9.5 11.5938 9.5 11.375Z" fill="#E60013"/>
</svg>
