<svg xmlns="http://www.w3.org/2000/svg" width="16" height="16" fill="none" viewBox="0 0 16 16"><path fill="#21214D" d="M3.001 2h2.627c.187 0 .375.188.375.375v.75a.38.38 0 0 1-.375.375H3a1.5 1.5 0 0 0-1.5 1.5v6c0 .844.656 1.5 1.5 1.5h2.627c.187 0 .375.188.375.375v.75a.38.38 0 0 1-.375.375H3A3.001 3.001 0 0 1 0 11V5c0-1.656 1.344-3 3.001-3Zm7.223.625c.125-.156.375-.156.531 0l5.128 5.125a.36.36 0 0 1 0 .531l-5.128 5.125c-.156.156-.406.156-.531 0l-.626-.625c-.156-.125-.156-.375 0-.531l3.533-3.438H5.378a.361.361 0 0 1-.376-.374v-.876a.38.38 0 0 1 .376-.375h7.753L9.598 3.781c-.156-.156-.156-.406 0-.531l.626-.625Z"/></svg>