<svg xmlns="http://www.w3.org/2000/svg" width="31" height="31" fill="none" viewBox="0 0 31 31"><circle cx="15.8" cy="15.065" r="15" fill="#fff"/><path fill="#21214D" d="m11.618 24.766.015.008c.454.198 1.102-.006 1.558-.382a7.66 7.66 0 0 1 2.038-1.211 8.863 8.863 0 0 1 1.978-.618 8.78 8.78 0 0 1 2.073-.151c.79.007 1.58.129 2.332.376.562.184 1.24.135 1.589-.216l.014-.014c.347-.343.12-.952-.594-1.261-1.57-.678-3.378-.91-5.184-.723-.196.028-.393.059-.591.097-.2.038-.394.081-.587.127-1.748.49-3.345 1.37-4.552 2.577-.553.55-.54 1.2-.089 1.391ZM12.802 12.256c0 1.515-1.07 2.744-2.39 2.744s-2.39-1.229-2.39-2.744c0-1.516 1.07-2.745 2.39-2.745s2.39 1.229 2.39 2.745ZM23.578 12.256c0 1.515-1.07 2.744-2.39 2.744s-2.39-1.229-2.39-2.744c0-1.516 1.07-2.745 2.39-2.745s2.39 1.229 2.39 2.745Z"/><path fill="#fff" d="M10.82 11.441a.868.868 0 1 1-1.736 0 .868.868 0 0 1 1.735 0ZM21.596 11.441a.868.868 0 1 1-1.736 0 .868.868 0 0 1 1.736 0Z"/></svg>