<svg xmlns="http://www.w3.org/2000/svg" width="30" height="31" fill="none" viewBox="0 0 30 31"><circle cx="15" cy="15.065" r="15" fill="#fff"/><path fill="#21214D" d="M15 24.805h2.96c.933 0 1.37-.841.673-1.293l-.061-.04c-2.038-1.32-5.106-1.32-7.144 0l-.061.04c-.698.452-.26 1.293.673 1.293H15ZM10.658 16.295c.24-.108.476-.228.69-.38a2.793 2.793 0 0 0 1.161-2.198.81.81 0 0 0-.053-.35c-.12-.264-.468-.363-.747-.283-.278.081-.496.298-.677.525-.18.227-.34.476-.56.665a2.388 2.388 0 0 1-.658.37c-.693.283-1.522.433-2.163.045-.13-.08-.248-.178-.366-.275-.299-.245-.618-.484-.992-.576-.375-.093-.82-.004-1.046.309-.188.259-.187.62-.064.916.123.296.353.534.599.739.809.672 1.865 1.051 2.915 1.004.679-.03 1.341-.232 1.96-.51ZM19.343 16.295a4.115 4.115 0 0 1-.691-.38 2.793 2.793 0 0 1-1.16-2.198.81.81 0 0 1 .052-.35c.12-.264.468-.363.747-.283.279.081.497.298.677.525.18.227.34.476.56.665.193.164.424.275.658.37.693.283 1.523.433 2.163.045.13-.08.248-.178.366-.275.299-.245.618-.484.992-.576.375-.093.82-.004 1.046.309.188.259.188.62.064.916-.123.296-.353.534-.599.739-.808.672-1.865 1.051-2.915 1.004-.679-.03-1.34-.232-1.96-.51Z"/><path fill="#21214D" d="M8.647 9.051c.993-.71 1.787-1.15 2.367-.785.58.365.59 1.617-.263 2.071-.853.454-3.284 1.888-6.679.994-.52-.1.17-1.33 1.592-1.305 1.421.025 2.628-.728 2.983-.975ZM21.354 9.051c-.994-.71-1.788-1.15-2.368-.785-.58.365-.59 1.617.263 2.071.853.454 3.285 1.888 6.68.994.52-.1-.171-1.33-1.592-1.305-1.422.025-2.63-.728-2.983-.975Z" opacity=".3"/></svg>