<svg xmlns="http://www.w3.org/2000/svg" width="154" height="155" fill="none" viewBox="0 0 154 155"><circle cx="76.665" cy="77.665" r="76.665" fill="#B8B1FF"/><path fill="#21214D" d="M76.666 127.449h15.128c4.768 0 7.007-4.301 3.442-6.612l-.312-.202c-10.415-6.748-26.1-6.748-36.514 0l-.313.202c-3.566 2.311-1.325 6.612 3.443 6.612h15.126ZM54.473 83.954c1.227-.551 2.432-1.166 3.53-1.942 3.59-2.539 5.862-6.843 5.933-11.237.01-.607-.023-1.231-.272-1.785-.611-1.352-2.391-1.86-3.816-1.446-1.424.413-2.54 1.519-3.462 2.681-.922 1.162-1.733 2.435-2.862 3.398-.983.837-2.166 1.405-3.362 1.893-3.542 1.444-7.782 2.212-11.054.228-.668-.405-1.268-.91-1.874-1.405-1.525-1.25-3.157-2.472-5.07-2.946-1.915-.473-4.188-.017-5.344 1.579-.96 1.325-.96 3.176-.328 4.687.629 1.509 1.804 2.728 3.06 3.774 4.134 3.436 9.532 5.374 14.9 5.134 3.47-.155 6.854-1.187 10.02-2.612ZM98.861 83.954c-1.227-.551-2.432-1.166-3.53-1.942-3.59-2.539-5.862-6.843-5.933-11.237-.01-.607.023-1.231.272-1.785.61-1.352 2.39-1.86 3.815-1.446 1.425.413 2.54 1.519 3.463 2.681.922 1.162 1.733 2.435 2.862 3.398.983.837 2.166 1.405 3.362 1.893 3.542 1.444 7.782 2.212 11.054.228.668-.405 1.268-.91 1.874-1.405 1.525-1.25 3.157-2.472 5.07-2.946 1.915-.473 4.188-.017 5.344 1.579.96 1.325.959 3.176.328 4.687-.629 1.509-1.804 2.728-3.061 3.774-4.133 3.436-9.531 5.374-14.9 5.134-3.469-.155-6.853-1.187-10.02-2.612Z"/><path fill="#21214D" d="M44.193 46.93c5.079-3.629 9.137-5.882 12.1-4.015 2.963 1.866 3.017 8.264-1.343 10.586-4.36 2.323-16.788 9.65-34.137 5.08-2.66-.514.87-6.797 8.135-6.669 7.265.13 13.434-3.723 15.245-4.983ZM109.141 46.93c-5.078-3.629-9.137-5.882-12.1-4.015-2.962 1.866-3.017 8.264 1.343 10.586 4.36 2.323 16.788 9.65 34.137 5.08 2.66-.514-.869-6.797-8.134-6.669-7.266.13-13.435-3.723-15.246-4.983Z" opacity=".3"/></svg>