<svg xmlns="http://www.w3.org/2000/svg" width="16" height="16" fill="none" viewBox="0 0 16 16"><path fill="#57577B" d="M8.103 2.684a.172.172 0 0 1-.094-.156c0-.094.032-.156.094-.187l1.56-.656.656-1.56A.21.21 0 0 1 10.506 0c.062 0 .125.062.156.125l.655 1.56 1.56.656c.063.03.094.093.094.187a.172.172 0 0 1-.093.156l-1.56.655-.656 1.56c-.031.063-.094.125-.156.125a.21.21 0 0 1-.187-.124l-.656-1.56-1.56-.656Zm3.277 5.68c.593.062.811.811.405 1.217l-2.371 2.31.561 3.276v.094a.706.706 0 0 1-.717.718c-.094 0-.25-.032-.344-.063l-2.933-1.56-2.903 1.56c-.53.28-1.154-.187-1.06-.749l.561-3.277L.207 9.58C-.198 9.176.02 8.427.613 8.365l3.277-.5L5.357 4.9c.25-.53 1.03-.53 1.28 0l1.466 2.964 3.277.5Zm4.525-1.498c.031.031.094.093.094.125 0 .062-.063.124-.094.156l-1.248.53-.53 1.248a.237.237 0 0 1-.126.063.238.238 0 0 1-.156-.063l-.53-1.248-1.249-.53a.238.238 0 0 1-.062-.156c0-.032.031-.094.062-.125l1.249-.53.53-1.25a.238.238 0 0 1 .156-.062c.031 0 .094.032.125.063l.53 1.248 1.249.53Z"/></svg>