<svg width="22" height="22" viewBox="0 0 22 22" fill="none" xmlns="http://www.w3.org/2000/svg">
<path d="M13.75 1.24609C13.707 1.54688 13.5781 1.97656 13.4062 2.19141L9.83984 6.1875H12.375C12.7188 6.1875 13.0625 6.53125 13.0625 6.875V7.5625C13.0625 7.94922 12.7188 8.25 12.375 8.25H7.5625C7.17578 8.25 6.875 7.94922 6.875 7.5625V7.00391C6.875 6.74609 7.00391 6.31641 7.17578 6.10156L10.7422 2.0625H8.25C7.86328 2.0625 7.5625 1.76172 7.5625 1.375V0.6875C7.5625 0.34375 7.86328 0 8.25 0H13.0625C13.4062 0 13.75 0.34375 13.75 0.6875V1.24609ZM9.96875 11C10.5273 11 11 11.4727 11 12.0312V13.1484C10.957 13.4492 10.7852 13.8789 10.5703 14.0938L5.32812 19.25H10.3125C10.6562 19.25 11 19.5938 11 19.9375V21.3125C11 21.6992 10.6562 22 10.3125 22H2.40625C1.80469 22 1.375 21.5703 1.375 20.9688V19.8945C1.375 19.5938 1.54688 19.1641 1.76172 18.9492L7.00391 13.75H2.75C2.36328 13.75 2.0625 13.4492 2.0625 13.0625V11.6875C2.0625 11.3438 2.36328 11 2.75 11H9.96875ZM19.9375 9.625C20.2812 9.625 20.625 9.96875 20.625 10.3125V10.8711C20.582 11.1719 20.4531 11.6016 20.2812 11.8164L16.7148 15.8125H19.25C19.5938 15.8125 19.9375 16.1562 19.9375 16.5V17.1875C19.9375 17.5742 19.5938 17.875 19.25 17.875H14.4375C14.0508 17.875 13.75 17.5742 13.75 17.1875V16.6289C13.75 16.3711 13.8789 15.9414 14.0508 15.7266L17.6172 11.6875H15.125C14.7383 11.6875 14.4375 11.3867 14.4375 11V10.3125C14.4375 9.96875 14.7383 9.625 15.125 9.625H19.9375Z" fill="#57577B"/>
</svg>
